<svg width="47" height="75" viewBox="0 0 47 75" fill="none" xmlns="http://www.w3.org/2000/svg">
<path d="M33.9387 21.7921C33.9974 20.9621 33.7919 20.1321 33.2927 19.48C32.7349 18.7389 31.9422 18.2647 31.0614 18.1461C30.1513 18.0275 29.2705 18.235 28.5365 18.7982C27.8025 19.3614 27.3327 20.1618 27.2153 21.051C27.0391 22.2367 27.5089 23.3928 28.3603 24.1338L10.6565 68.1527C9.83444 68.0934 9.04173 68.3009 8.36646 68.8048C7.63247 69.368 7.16271 70.1683 7.04528 71.0576C6.78104 72.9251 8.07286 74.674 9.92251 74.9704C10.0987 75 10.2455 75 10.4216 75C12.0951 75 13.5631 73.755 13.798 72.0358C13.9154 71.1169 13.7099 70.2276 13.1521 69.4866C13.0053 69.3087 12.8585 69.1308 12.6823 68.9826L14.5907 64.2399C16.2642 64.9216 18.0551 65.3959 19.8461 65.6627C20.9617 65.8405 22.1067 65.8998 23.2224 65.8998C28.1842 65.8998 32.9991 64.2992 37.0508 61.246C42.0125 57.5111 45.2127 52.0272 46.1229 45.8616C47.5321 35.9908 42.6291 26.3866 33.9387 21.7921ZM10.2455 72.7768C9.5702 72.6879 9.12981 72.0654 9.21789 71.3837C9.2766 71.0576 9.4234 70.7612 9.68764 70.5833C9.89316 70.4351 10.1574 70.3462 10.4216 70.3462C10.4803 70.3462 10.5391 70.3462 10.5978 70.3462C10.9207 70.4055 11.2143 70.5537 11.3905 70.8205C11.596 71.0872 11.6547 71.4133 11.6254 71.7394C11.5373 72.4211 10.9207 72.8658 10.2455 72.7768ZM29.8283 20.5471C30.0338 20.3989 30.2981 20.31 30.5623 20.31C30.621 20.31 30.6797 20.31 30.7385 20.31C31.0614 20.3693 31.355 20.5175 31.5312 20.7842C31.7367 21.051 31.7954 21.3771 31.766 21.7032C31.678 22.3849 31.0614 22.8296 30.3861 22.7406C29.7109 22.6517 29.2705 22.0292 29.3586 21.3475C29.3879 21.0214 29.5641 20.725 29.8283 20.5471ZM43.9503 45.5356C43.1576 51.138 40.2216 56.0882 35.7589 59.4675C31.2669 62.8467 25.7473 64.2695 20.1984 63.4692C18.5542 63.232 16.9688 62.7874 15.4421 62.1649L30.3861 24.9342C30.4449 24.9342 30.5329 24.9638 30.5917 24.9638C31.5605 24.9638 32.4707 24.5192 33.1166 23.8374C40.8675 28.017 45.2127 36.6725 43.9503 45.5356Z" fill="white"/>
<path d="M8.77746 62.817C10.451 62.817 11.9189 61.572 12.1538 59.8528C12.2713 58.9339 12.0657 58.0446 11.5079 57.3036C11.3611 57.0961 11.1849 56.9182 11.0088 56.77L31.032 6.91164C31.0907 6.91164 31.1495 6.91164 31.2375 6.91164C32.911 6.91164 34.379 5.66666 34.6139 3.9474C34.8781 2.07994 33.5863 0.331043 31.7367 0.0346203C29.887 -0.23216 28.1548 1.0721 27.8612 2.93957C27.685 4.1549 28.1548 5.28131 29.0062 6.02237L23.7215 19.1539C23.4866 19.1243 23.2517 19.1243 22.9875 19.0946C22.9875 19.0946 22.9875 19.0946 22.9581 19.0946H22.9288C22.3416 19.0946 21.725 19.1243 21.1085 19.1835C20.8736 19.2132 20.6387 19.2428 20.4039 19.2725C20.0809 19.3021 19.7579 19.3614 19.4644 19.4207C19.1708 19.48 18.8772 19.5096 18.5836 19.5689C18.1725 19.6578 17.9083 19.7171 17.9083 19.7171H17.967C14.2971 20.5767 10.862 22.296 7.98476 24.8156C3.78634 28.4912 1.02654 33.5897 0.233828 39.1625C-0.529521 44.587 0.586143 50.1005 3.43402 54.7543C3.43402 54.784 3.46338 54.8136 3.46338 54.8432C3.49274 54.8729 3.5221 54.9322 3.55146 54.9618L3.58082 55.0211C3.69826 55.2286 3.84506 55.4064 3.96249 55.6139L4.02121 55.7029C4.40289 56.2661 4.78456 56.7996 5.1956 57.3036C5.22496 57.3332 5.25432 57.3925 5.31304 57.4221C5.45983 57.5703 5.57727 57.7185 5.69471 57.8668C5.54791 58.1632 5.43047 58.5189 5.40111 58.8746C5.13688 60.7421 6.4287 62.491 8.27835 62.7874C8.45451 62.7874 8.60131 62.817 8.77746 62.817ZM31.2082 2.25779C31.2669 2.25779 31.3256 2.25779 31.3843 2.25779C32.0596 2.34672 32.5 2.96921 32.4119 3.65098C32.3238 4.33275 31.7073 4.77739 31.032 4.68846C30.3568 4.59953 29.9164 3.97705 30.0044 3.29527C30.0925 2.70243 30.621 2.25779 31.2082 2.25779ZM6.89845 55.8807C6.86909 55.8511 6.83973 55.8214 6.81037 55.7918C6.48742 55.3768 6.1351 54.9322 5.84151 54.4579L5.78279 54.369C5.66535 54.1911 5.54791 54.0133 5.43047 53.8354L5.37175 53.7465L5.34239 53.7168C2.72939 49.478 1.70181 44.4388 2.40644 39.5182C3.14043 34.479 5.63599 29.8548 9.42338 26.5348C13.152 23.2742 17.9377 21.4364 22.8407 21.3771L8.95362 55.94C8.33707 55.9104 7.74988 56.0289 7.25077 56.2957C7.13333 56.1475 7.01589 56.0289 6.89845 55.8807ZM7.57372 59.171C7.6618 58.5485 8.19027 58.1335 8.77746 58.1335C8.83618 58.1335 8.8949 58.1335 8.95362 58.1335C9.27658 58.1928 9.57017 58.341 9.74633 58.6078C9.95185 58.8746 10.0106 59.2007 9.98121 59.5267C9.89313 60.2085 9.27658 60.6531 8.60131 60.5642C7.92604 60.4753 7.45628 59.8528 7.57372 59.171Z" fill="white"/>
</svg>
